<?xml version="1.0" encoding="UTF-8" standalone="no"?>
<!DOCTYPE svg PUBLIC "-//W3C//DTD SVG 1.1//EN"
 "http://www.w3.org/Graphics/SVG/1.1/DTD/svg11.dtd">
<!-- Generated by graphviz version 2.42.4 (0)
 -->
<!-- Title: matching Pages: 1 -->
<svg width="1372pt" height="548pt"
 viewBox="0.00 0.00 1372.00 548.00" xmlns="http://www.w3.org/2000/svg" xmlns:xlink="http://www.w3.org/1999/xlink">
<g id="graph0" class="graph" transform="scale(1 1) rotate(0) translate(4 544)">
<title>matching</title>
<polygon fill="white" stroke="transparent" points="-4,4 -4,-544 1368,-544 1368,4 -4,4"/>
<g id="clust1" class="cluster">
<title>cluster_one</title>
</g>
<g id="clust2" class="cluster">
<title>cluster_two</title>
</g>
<!-- l189010827828320 -->
<g id="node1" class="node">
<title>l189010827828320</title>
<ellipse fill="none" stroke="black" cx="128" cy="-414" rx="59.59" ry="18"/>
<text text-anchor="middle" x="128" y="-410.3" font-family="Times,serif" font-size="14.00">source_file</text>
</g>
<!-- l189010827650496 -->
<g id="node2" class="node">
<title>l189010827650496</title>
<ellipse fill="none" stroke="black" cx="128" cy="-342" rx="63.89" ry="18"/>
<text text-anchor="middle" x="128" y="-338.3" font-family="Times,serif" font-size="14.00">struct_item</text>
</g>
<!-- l189010827828320&#45;&#45;l189010827650496 -->
<g id="edge10" class="edge">
<title>l189010827828320&#45;&#45;l189010827650496</title>
<path fill="none" stroke="black" d="M128,-395.7C128,-384.85 128,-370.92 128,-360.1"/>
</g>
<!-- r189010827828320 -->
<g id="node12" class="node">
<title>r189010827828320</title>
<ellipse fill="none" stroke="black" cx="792" cy="-414" rx="59.59" ry="18"/>
<text text-anchor="middle" x="792" y="-410.3" font-family="Times,serif" font-size="14.00">source_file</text>
</g>
<!-- l189010827828320&#45;&#45;r189010827828320 -->
<g id="edge31" class="edge">
<title>l189010827828320&#45;&#45;r189010827828320</title>
<path fill="none" stroke="black" stroke-dasharray="5,2" d="M186.36,-409.67C368.82,-397.44 551.28,-397.44 733.74,-409.68"/>
</g>
<!-- l189010827828320&#45;&#45;r189010827828320 -->
<g id="edge38" class="edge">
<title>l189010827828320&#45;&#45;r189010827828320</title>
<path fill="none" stroke="black" stroke-dasharray="1,5" d="M186.36,-418.33C368.82,-430.56 551.28,-430.56 733.74,-418.32"/>
</g>
<!-- l189010827655968 -->
<g id="node3" class="node">
<title>l189010827655968</title>
<polygon fill="none" stroke="black" points="67.5,-288 8.5,-288 8.5,-252 67.5,-252 67.5,-288"/>
<text text-anchor="middle" x="38" y="-266.3" font-family="monospace" font-size="14.00">struct</text>
</g>
<!-- l189010827650496&#45;&#45;l189010827655968 -->
<g id="edge1" class="edge">
<title>l189010827650496&#45;&#45;l189010827655968</title>
<path fill="none" stroke="black" d="M107.13,-324.76C93,-313.78 74.38,-299.29 60.02,-288.12"/>
</g>
<!-- l189010827655984 -->
<g id="node4" class="node">
<title>l189010827655984</title>
<polygon fill="none" stroke="black" points="170,-288 86,-288 86,-252 170,-252 170,-288"/>
<text text-anchor="middle" x="128" y="-266.3" font-family="monospace" font-size="14.00">MyStruct</text>
</g>
<!-- l189010827650496&#45;&#45;l189010827655984 -->
<g id="edge2" class="edge">
<title>l189010827650496&#45;&#45;l189010827655984</title>
<path fill="none" stroke="black" d="M128,-323.7C128,-312.85 128,-298.92 128,-288.1"/>
</g>
<!-- l189010827656000 -->
<g id="node5" class="node">
<title>l189010827656000</title>
<ellipse fill="none" stroke="black" cx="295" cy="-270" rx="106.68" ry="18"/>
<text text-anchor="middle" x="295" y="-266.3" font-family="Times,serif" font-size="14.00">field_declaration_list</text>
</g>
<!-- l189010827650496&#45;&#45;l189010827656000 -->
<g id="edge9" class="edge">
<title>l189010827650496&#45;&#45;l189010827656000</title>
<path fill="none" stroke="black" d="M162.2,-326.67C189.78,-315.11 228.53,-298.86 257.06,-286.9"/>
</g>
<!-- r189010827576736 -->
<g id="node13" class="node">
<title>r189010827576736</title>
<ellipse fill="none" stroke="black" cx="792" cy="-342" rx="63.89" ry="18"/>
<text text-anchor="middle" x="792" y="-338.3" font-family="Times,serif" font-size="14.00">struct_item</text>
</g>
<!-- l189010827650496&#45;&#45;r189010827576736 -->
<g id="edge34" class="edge">
<title>l189010827650496&#45;&#45;r189010827576736</title>
<path fill="none" stroke="black" stroke-dasharray="1,5" d="M191.87,-342C370.62,-342 549.37,-342 728.12,-342"/>
</g>
<!-- r189010827657952 -->
<g id="node14" class="node">
<title>r189010827657952</title>
<polygon fill="none" stroke="black" points="731.5,-288 672.5,-288 672.5,-252 731.5,-252 731.5,-288"/>
<text text-anchor="middle" x="702" y="-266.3" font-family="monospace" font-size="14.00">struct</text>
</g>
<!-- l189010827655968&#45;&#45;r189010827657952 -->
<g id="edge28" class="edge">
<title>l189010827655968&#45;&#45;r189010827657952</title>
<path fill="none" stroke="black" stroke-width="2" d="M56.42,-288.24C64.74,-295.22 75.13,-302.38 86,-306 196.65,-342.88 564.74,-290.98 672.26,-274.64"/>
</g>
<!-- r189010827657968 -->
<g id="node15" class="node">
<title>r189010827657968</title>
<polygon fill="none" stroke="black" points="834,-288 750,-288 750,-252 834,-252 834,-288"/>
<text text-anchor="middle" x="792" y="-266.3" font-family="monospace" font-size="14.00">MyStruct</text>
</g>
<!-- l189010827655984&#45;&#45;r189010827657968 -->
<g id="edge27" class="edge">
<title>l189010827655984&#45;&#45;r189010827657968</title>
<path fill="none" stroke="black" stroke-width="2" d="M151.43,-288.1C162,-295.15 175.01,-302.4 188,-306 246.25,-322.13 673.75,-322.13 732,-306 744.99,-302.4 758,-295.15 768.57,-288.1"/>
</g>
<!-- l189010827791840 -->
<g id="node6" class="node">
<title>l189010827791840</title>
<polygon fill="none" stroke="black" points="138,-216 84,-216 84,-180 138,-180 138,-216"/>
<text text-anchor="middle" x="111" y="-194.3" font-family="monospace" font-size="14.00">{</text>
</g>
<!-- l189010827656000&#45;&#45;l189010827791840 -->
<g id="edge3" class="edge">
<title>l189010827656000&#45;&#45;l189010827791840</title>
<path fill="none" stroke="black" d="M248.56,-253.67C219.18,-243.65 180.54,-229.89 147,-216 144.06,-214.78 141.02,-213.46 138,-212.1"/>
</g>
<!-- l189010827791856 -->
<g id="node7" class="node">
<title>l189010827791856</title>
<ellipse fill="none" stroke="black" cx="243" cy="-198" rx="87.18" ry="18"/>
<text text-anchor="middle" x="243" y="-194.3" font-family="Times,serif" font-size="14.00">field_declaration</text>
</g>
<!-- l189010827656000&#45;&#45;l189010827791856 -->
<g id="edge7" class="edge">
<title>l189010827656000&#45;&#45;l189010827791856</title>
<path fill="none" stroke="black" d="M282.41,-252.05C274.36,-241.21 263.94,-227.18 255.83,-216.28"/>
</g>
<!-- l189010827791872 -->
<g id="node11" class="node">
<title>l189010827791872</title>
<polygon fill="none" stroke="black" points="402,-216 348,-216 348,-180 402,-180 402,-216"/>
<text text-anchor="middle" x="375" y="-194.3" font-family="monospace" font-size="14.00">}</text>
</g>
<!-- l189010827656000&#45;&#45;l189010827791872 -->
<g id="edge8" class="edge">
<title>l189010827656000&#45;&#45;l189010827791872</title>
<path fill="none" stroke="black" d="M314.37,-252.05C326.85,-241.13 343.03,-226.97 355.54,-216.03"/>
</g>
<!-- r189010827657984 -->
<g id="node16" class="node">
<title>r189010827657984</title>
<ellipse fill="none" stroke="black" cx="959" cy="-270" rx="106.68" ry="18"/>
<text text-anchor="middle" x="959" y="-266.3" font-family="Times,serif" font-size="14.00">field_declaration_list</text>
</g>
<!-- l189010827656000&#45;&#45;r189010827657984 -->
<g id="edge32" class="edge">
<title>l189010827656000&#45;&#45;r189010827657984</title>
<path fill="none" stroke="black" stroke-dasharray="1,5" d="M361,-284.15C402.65,-292.35 457.71,-301.84 507,-306 651.82,-318.21 690.09,-326.31 834,-306 860.95,-302.2 890.22,-294 913.66,-286.38"/>
</g>
<!-- r189010827826656 -->
<g id="node17" class="node">
<title>r189010827826656</title>
<polygon fill="none" stroke="black" points="656,-216 602,-216 602,-180 656,-180 656,-216"/>
<text text-anchor="middle" x="629" y="-194.3" font-family="monospace" font-size="14.00">{</text>
</g>
<!-- l189010827791840&#45;&#45;r189010827826656 -->
<g id="edge29" class="edge">
<title>l189010827791840&#45;&#45;r189010827826656</title>
<path fill="none" stroke="black" stroke-width="2" d="M128.08,-216.22C135.85,-223.2 145.62,-230.36 156,-234 257.07,-269.45 290.21,-242.24 397,-234 471.57,-228.25 558.44,-212.25 601.66,-203.64"/>
</g>
<!-- l189010827787488 -->
<g id="node8" class="node">
<title>l189010827787488</title>
<polygon fill="none" stroke="black" points="198,-144 144,-144 144,-108 198,-108 198,-144"/>
<text text-anchor="middle" x="171" y="-122.3" font-family="monospace" font-size="14.00">first</text>
</g>
<!-- l189010827791856&#45;&#45;l189010827787488 -->
<g id="edge4" class="edge">
<title>l189010827791856&#45;&#45;l189010827787488</title>
<path fill="none" stroke="black" d="M225.57,-180.05C214.33,-169.13 199.77,-154.97 188.52,-144.03"/>
</g>
<!-- l189010827787504 -->
<g id="node9" class="node">
<title>l189010827787504</title>
<polygon fill="none" stroke="black" points="270,-144 216,-144 216,-108 270,-108 270,-144"/>
<text text-anchor="middle" x="243" y="-122.3" font-family="monospace" font-size="14.00">:</text>
</g>
<!-- l189010827791856&#45;&#45;l189010827787504 -->
<g id="edge5" class="edge">
<title>l189010827791856&#45;&#45;l189010827787504</title>
<path fill="none" stroke="black" d="M243,-179.7C243,-168.85 243,-154.92 243,-144.1"/>
</g>
<!-- l189010827653088 -->
<g id="node10" class="node">
<title>l189010827653088</title>
<polygon fill="none" stroke="black" points="342,-144 288,-144 288,-108 342,-108 342,-144"/>
<text text-anchor="middle" x="315" y="-122.3" font-family="monospace" font-size="14.00">usize</text>
</g>
<!-- l189010827791856&#45;&#45;l189010827653088 -->
<g id="edge6" class="edge">
<title>l189010827791856&#45;&#45;l189010827653088</title>
<path fill="none" stroke="black" d="M260.43,-180.05C271.67,-169.13 286.23,-154.97 297.48,-144.03"/>
</g>
<!-- r189010827826672 -->
<g id="node18" class="node">
<title>r189010827826672</title>
<ellipse fill="none" stroke="black" cx="761" cy="-198" rx="87.18" ry="18"/>
<text text-anchor="middle" x="761" y="-194.3" font-family="Times,serif" font-size="14.00">field_declaration</text>
</g>
<!-- l189010827791856&#45;&#45;r189010827826672 -->
<g id="edge37" class="edge">
<title>l189010827791856&#45;&#45;r189010827826672</title>
<path fill="none" stroke="black" stroke-dasharray="1,5" d="M280.61,-214.28C300.28,-221.91 325,-230.17 348,-234 483.03,-256.5 520.97,-256.5 656,-234 679,-230.17 703.72,-221.91 723.39,-214.28"/>
</g>
<!-- r189010827655968 -->
<g id="node19" class="node">
<title>r189010827655968</title>
<polygon fill="none" stroke="black" points="716,-144 662,-144 662,-108 716,-108 716,-144"/>
<text text-anchor="middle" x="689" y="-122.3" font-family="monospace" font-size="14.00">first</text>
</g>
<!-- l189010827787488&#45;&#45;r189010827655968 -->
<g id="edge33" class="edge">
<title>l189010827787488&#45;&#45;r189010827655968</title>
<path fill="none" stroke="black" stroke-dasharray="1,5" d="M188.08,-144.22C195.85,-151.2 205.62,-158.36 216,-162 299.15,-191.17 573.81,-146.41 661.7,-130.94"/>
</g>
<!-- r189010827655984 -->
<g id="node20" class="node">
<title>r189010827655984</title>
<polygon fill="none" stroke="black" points="788,-144 734,-144 734,-108 788,-108 788,-144"/>
<text text-anchor="middle" x="761" y="-122.3" font-family="monospace" font-size="14.00">:</text>
</g>
<!-- l189010827787504&#45;&#45;r189010827655984 -->
<g id="edge35" class="edge">
<title>l189010827787504&#45;&#45;r189010827655984</title>
<path fill="none" stroke="black" stroke-dasharray="1,5" d="M260.08,-144.22C267.85,-151.2 277.62,-158.36 288,-162 332.87,-177.74 671.13,-177.74 716,-162 726.38,-158.36 736.15,-151.2 743.92,-144.22"/>
</g>
<!-- r189010827653088 -->
<g id="node21" class="node">
<title>r189010827653088</title>
<polygon fill="none" stroke="black" points="860,-144 806,-144 806,-108 860,-108 860,-144"/>
<text text-anchor="middle" x="833" y="-122.3" font-family="monospace" font-size="14.00">usize</text>
</g>
<!-- l189010827653088&#45;&#45;r189010827653088 -->
<g id="edge36" class="edge">
<title>l189010827653088&#45;&#45;r189010827653088</title>
<path fill="none" stroke="black" stroke-dasharray="1,5" d="M342.12,-132.73C379.1,-141.53 447.57,-156.48 507,-162 569.18,-167.78 729.08,-182.67 788,-162 798.38,-158.36 808.15,-151.2 815.92,-144.22"/>
</g>
<!-- r189010827826720 -->
<g id="node28" class="node">
<title>r189010827826720</title>
<polygon fill="none" stroke="black" points="1256,-216 1202,-216 1202,-180 1256,-180 1256,-216"/>
<text text-anchor="middle" x="1229" y="-194.3" font-family="monospace" font-size="14.00">}</text>
</g>
<!-- l189010827791872&#45;&#45;r189010827826720 -->
<g id="edge30" class="edge">
<title>l189010827791872&#45;&#45;r189010827826720</title>
<path fill="none" stroke="black" stroke-width="2" d="M402.12,-207.68C428.5,-216.55 469.92,-229.03 507,-234 581.56,-243.98 1113.02,-258.9 1184,-234 1194.38,-230.36 1204.15,-223.2 1211.92,-216.22"/>
</g>
<!-- r189010827828320&#45;&#45;r189010827576736 -->
<g id="edge26" class="edge">
<title>r189010827828320&#45;&#45;r189010827576736</title>
<path fill="none" stroke="black" d="M792,-395.7C792,-384.85 792,-370.92 792,-360.1"/>
</g>
<!-- r189010827576736&#45;&#45;r189010827657952 -->
<g id="edge11" class="edge">
<title>r189010827576736&#45;&#45;r189010827657952</title>
<path fill="none" stroke="black" d="M771.13,-324.76C757,-313.78 738.38,-299.29 724.02,-288.12"/>
</g>
<!-- r189010827576736&#45;&#45;r189010827657968 -->
<g id="edge12" class="edge">
<title>r189010827576736&#45;&#45;r189010827657968</title>
<path fill="none" stroke="black" d="M792,-323.7C792,-312.85 792,-298.92 792,-288.1"/>
</g>
<!-- r189010827576736&#45;&#45;r189010827657984 -->
<g id="edge25" class="edge">
<title>r189010827576736&#45;&#45;r189010827657984</title>
<path fill="none" stroke="black" d="M826.2,-326.67C853.78,-315.11 892.53,-298.86 921.06,-286.9"/>
</g>
<!-- r189010827657984&#45;&#45;r189010827826656 -->
<g id="edge13" class="edge">
<title>r189010827657984&#45;&#45;r189010827826656</title>
<path fill="none" stroke="black" d="M881.96,-257.46C808.83,-246.08 704.39,-228.61 665,-216 662.1,-215.07 659.14,-213.96 656.22,-212.76"/>
</g>
<!-- r189010827657984&#45;&#45;r189010827826672 -->
<g id="edge17" class="edge">
<title>r189010827657984&#45;&#45;r189010827826672</title>
<path fill="none" stroke="black" d="M915.06,-253.46C881.68,-241.66 836.05,-225.53 803.12,-213.89"/>
</g>
<!-- r189010827584800 -->
<g id="node22" class="node">
<title>r189010827584800</title>
<polygon fill="#40e0d0" stroke="black" points="920,-216 866,-216 866,-180 920,-180 920,-216"/>
<text text-anchor="middle" x="893" y="-194.3" font-family="monospace" font-size="14.00">,</text>
</g>
<!-- r189010827657984&#45;&#45;r189010827584800 -->
<g id="edge18" class="edge">
<title>r189010827657984&#45;&#45;r189010827584800</title>
<path fill="none" stroke="black" d="M943.02,-252.05C932.8,-241.21 919.57,-227.18 909.29,-216.28"/>
</g>
<!-- r189010827584816 -->
<g id="node23" class="node">
<title>r189010827584816</title>
<ellipse fill="#40e0d0" stroke="black" cx="1025" cy="-198" rx="87.18" ry="18"/>
<text text-anchor="middle" x="1025" y="-194.3" font-family="Times,serif" font-size="14.00">field_declaration</text>
</g>
<!-- r189010827657984&#45;&#45;r189010827584816 -->
<g id="edge22" class="edge">
<title>r189010827657984&#45;&#45;r189010827584816</title>
<path fill="none" stroke="black" d="M974.98,-252.05C985.35,-241.05 998.82,-226.76 1009.17,-215.79"/>
</g>
<!-- r189010827826704 -->
<g id="node27" class="node">
<title>r189010827826704</title>
<polygon fill="#40e0d0" stroke="black" points="1184,-216 1130,-216 1130,-180 1184,-180 1184,-216"/>
<text text-anchor="middle" x="1157" y="-194.3" font-family="monospace" font-size="14.00">,</text>
</g>
<!-- r189010827657984&#45;&#45;r189010827826704 -->
<g id="edge23" class="edge">
<title>r189010827657984&#45;&#45;r189010827826704</title>
<path fill="none" stroke="black" d="M1009.93,-254.13C1042.13,-244.29 1084.43,-230.55 1121,-216 1123.83,-214.88 1126.74,-213.64 1129.64,-212.35"/>
</g>
<!-- r189010827657984&#45;&#45;r189010827826720 -->
<g id="edge24" class="edge">
<title>r189010827657984&#45;&#45;r189010827826720</title>
<path fill="none" stroke="black" d="M1031.56,-256.81C1078.36,-247.91 1140.13,-234.22 1193,-216 1195.88,-215.01 1198.83,-213.86 1201.74,-212.63"/>
</g>
<!-- r189010827826672&#45;&#45;r189010827655968 -->
<g id="edge14" class="edge">
<title>r189010827826672&#45;&#45;r189010827655968</title>
<path fill="none" stroke="black" d="M743.57,-180.05C732.33,-169.13 717.77,-154.97 706.52,-144.03"/>
</g>
<!-- r189010827826672&#45;&#45;r189010827655984 -->
<g id="edge15" class="edge">
<title>r189010827826672&#45;&#45;r189010827655984</title>
<path fill="none" stroke="black" d="M761,-179.7C761,-168.85 761,-154.92 761,-144.1"/>
</g>
<!-- r189010827826672&#45;&#45;r189010827653088 -->
<g id="edge16" class="edge">
<title>r189010827826672&#45;&#45;r189010827653088</title>
<path fill="none" stroke="black" d="M778.43,-180.05C789.67,-169.13 804.23,-154.97 815.48,-144.03"/>
</g>
<!-- r189010827728800 -->
<g id="node24" class="node">
<title>r189010827728800</title>
<polygon fill="#40e0d0" stroke="black" points="979.5,-144 924.5,-144 924.5,-108 979.5,-108 979.5,-144"/>
<text text-anchor="middle" x="952" y="-122.3" font-family="monospace" font-size="14.00">other</text>
</g>
<!-- r189010827584816&#45;&#45;r189010827728800 -->
<g id="edge19" class="edge">
<title>r189010827584816&#45;&#45;r189010827728800</title>
<path fill="none" stroke="black" d="M1007.33,-180.05C995.94,-169.13 981.17,-154.97 969.76,-144.03"/>
</g>
<!-- r189010827728816 -->
<g id="node25" class="node">
<title>r189010827728816</title>
<polygon fill="#40e0d0" stroke="black" points="1052,-144 998,-144 998,-108 1052,-108 1052,-144"/>
<text text-anchor="middle" x="1025" y="-122.3" font-family="monospace" font-size="14.00">:</text>
</g>
<!-- r189010827584816&#45;&#45;r189010827728816 -->
<g id="edge20" class="edge">
<title>r189010827584816&#45;&#45;r189010827728816</title>
<path fill="none" stroke="black" d="M1025,-179.7C1025,-168.85 1025,-154.92 1025,-144.1"/>
</g>
<!-- r189010827650496 -->
<g id="node26" class="node">
<title>r189010827650496</title>
<polygon fill="#40e0d0" stroke="black" points="1124,-144 1070,-144 1070,-108 1124,-108 1124,-144"/>
<text text-anchor="middle" x="1097" y="-122.3" font-family="monospace" font-size="14.00">bool</text>
</g>
<!-- r189010827584816&#45;&#45;r189010827650496 -->
<g id="edge21" class="edge">
<title>r189010827584816&#45;&#45;r189010827650496</title>
<path fill="none" stroke="black" d="M1042.43,-180.05C1053.67,-169.13 1068.23,-154.97 1079.48,-144.03"/>
</g>
</g>
</svg>
